999
dxfrw 0.6.3
  0
SECTION
  2
HEADER
  9
$ACADVER
  1
AC1021
  9
$DWGCODEPAGE
  3
ANSI_1252
  9
$INSBASE
 10
0
 20
0
 30
0
  9
$EXTMIN
 10
-13700.22863369153
 20
-165125.7003454177
 30
0
  9
$EXTMAX
 10
159151.7796853788
 20
-29257.53960249407
 30
0
  9
$LIMMIN
 10
0
 20
0
  9
$LIMMAX
 10
420
 20
297
  9
$ORTHOMODE
 70
    0
  9
$REGENMODE
 70
    1
  9
$FILLMODE
 70
    1
  9
$QTEXTMODE
 70
    0
  9
$MIRRTEXT
 70
    0
  9
$LTSCALE
 40
1
  9
$ATTMODE
 70
    0
  9
$TEXTSIZE
 40
2.5
  9
$TRACEWID
 40
15.68
  9
$TEXTSTYLE
  7
STANDARD
  9
$CLAYER
  8
tents and stalls
  9
$CELTYPE
  6
BYLAYER
  9
$CECOLOR
 62
  256
  9
$CELTSCALE
 40
1
  9
$DISPSILH
 70
    0
  9
$DIMSCALE
 40
2.5
  9
$DIMASZ
 40
2.5
  9
$DIMEXO
 40
0.625
  9
$DIMDLI
 40
3.75
  9
$DIMRND
 40
0
  9
$DIMDLE
 40
0
  9
$DIMEXE
 40
1.25
  9
$DIMTP
 40
0
  9
$DIMTM
 40
0
  9
$DIMTXT
 40
25000
  9
$DIMCEN
 40
2.5
  9
$DIMTSZ
 40
0
  9
$DIMTOL
 70
    0
  9
$DIMLIM
 70
    0
  9
$DIMTIH
 70
    0
  9
$DIMTOH
 70
    0
  9
$DIMSE1
 70
    0
  9
$DIMSE2
 70
    0
  9
$DIMTAD
 70
    1
  9
$DIMZIN
 70
    1
  9
$DIMBLK
  1

  9
$DIMASO
 70
    1
  9
$DIMSHO
 70
    1
  9
$DIMPOST
  1

  9
$DIMAPOST
  1

  9
$DIMALT
 70
    0
  9
$DIMALTD
 70
    3
  9
$DIMALTF
 40
0.03937
  9
$DIMLFAC
 40
1
  9
$DIMTOFL
 70
    1
  9
$DIMTVP
 40
0
  9
$DIMTIX
 70
    0
  9
$DIMSOXD
 70
    0
  9
$DIMSAH
 70
    0
  9
$DIMBLK1
  1

  9
$DIMBLK2
  1

  9
$DIMSTYLE
  2
STANDARD
  9
$DIMCLRD
 70
    0
  9
$DIMCLRE
 70
    0
  9
$DIMCLRT
 70
    0
  9
$DIMTFAC
 40
1
  9
$DIMGAP
 40
0.625
  9
$DIMJUST
 70
    0
  9
$DIMSD1
 70
    0
  9
$DIMSD2
 70
    0
  9
$DIMTOLJ
 70
    0
  9
$DIMTZIN
 70
    8
  9
$DIMALTZ
 70
    0
  9
$DIMALTTZ
 70
    0
  9
$DIMUPT
 70
    0
  9
$DIMDEC
 70
    4
  9
$DIMTDEC
 70
    2
  9
$DIMALTU
 70
    2
  9
$DIMALTTD
 70
    3
  9
$DIMTXSTY
  7
standard
  9
$DIMAUNIT
 70
    0
  9
$DIMADEC
 70
    2
  9
$DIMALTRND
 40
0
  9
$DIMAZIN
 70
    0
  9
$DIMDSEP
 70
   44
  9
$DIMATFIT
 70
    3
  9
$DIMFRAC
 70
    0
  9
$DIMLDRBLK
  1
STANDARD
  9
$DIMLUNIT
 70
    2
  9
$DIMLWD
 70
   -2
  9
$DIMLWE
 70
   -2
  9
$DIMTMOVE
 70
    0
  9
$DIMFXL
 40
1
  9
$DIMFXLON
 70
    0
  9
$DIMJOGANG
 40
0.7854
  9
$DIMTFILL
 70
    0
  9
$DIMTFILLCLR
 70
    0
  9
$DIMARCSYM
 70
    0
  9
$DIMLTYPE
  6

  9
$DIMLTEX1
  6

  9
$DIMLTEX2
  6

  9
$LUNITS
 70
    2
  9
$LUPREC
 70
    4
  9
$SKETCHINC
 40
1
  9
$FILLETRAD
 40
0
  9
$AUNITS
 70
    0
  9
$AUPREC
 70
    2
  9
$MENU
  1
.
  9
$ELEVATION
 40
0
  9
$PELEVATION
 40
0
  9
$THICKNESS
 40
0
  9
$LIMCHECK
 70
    0
  9
$CHAMFERA
 40
0
  9
$CHAMFERB
 40
0
  9
$CHAMFERC
 40
0
  9
$CHAMFERD
 40
0
  9
$SKPOLY
 70
    0
  9
$USRTIMER
 70
    1
  9
$ANGBASE
 50
0
  9
$ANGDIR
 70
    0
  9
$PDMODE
 70
   34
  9
$PDSIZE
 40
0
  9
$PLINEWID
 40
0
  9
$SPLFRAME
 70
    0
  9
$SPLINETYPE
 70
    2
  9
$SPLINESEGS
 70
    8
  9
$HANDSEED
  5
20000
  9
$SURFTAB1
 70
    6
  9
$SURFTAB2
 70
    6
  9
$SURFTYPE
 70
    6
  9
$SURFU
 70
    6
  9
$SURFV
 70
    6
  9
$UCSBASE
  2

  9
$UCSNAME
  2

  9
$UCSORG
 10
0
 20
0
 30
0
  9
$UCSXDIR
 10
1
 20
0
 30
0
  9
$UCSYDIR
 10
0
 20
1
 30
0
  9
$UCSORTHOREF
  2

  9
$UCSORTHOVIEW
 70
    0
  9
$UCSORGTOP
 10
0
 20
0
 30
0
  9
$UCSORGBOTTOM
 10
0
 20
0
 30
0
  9
$UCSORGLEFT
 10
0
 20
0
 30
0
  9
$UCSORGRIGHT
 10
0
 20
0
 30
0
  9
$UCSORGFRONT
 10
0
 20
0
 30
0
  9
$UCSORGBACK
 10
0
 20
0
 30
0
  9
$PUCSBASE
  2

  9
$PUCSNAME
  2

  9
$PUCSORG
 10
0
 20
0
 30
0
  9
$PUCSXDIR
 10
1
 20
0
 30
0
  9
$PUCSYDIR
 10
0
 20
1
 30
0
  9
$PUCSORTHOREF
  2

  9
$PUCSORTHOVIEW
 70
    0
  9
$PUCSORGTOP
 10
0
 20
0
 30
0
  9
$PUCSORGBOTTOM
 10
0
 20
0
 30
0
  9
$PUCSORGLEFT
 10
0
 20
0
 30
0
  9
$PUCSORGRIGHT
 10
0
 20
0
 30
0
  9
$PUCSORGFRONT
 10
0
 20
0
 30
0
  9
$PUCSORGBACK
 10
0
 20
0
 30
0
  9
$USERI1
 70
    0
  9
$USERI2
 70
    0
  9
$USERI3
 70
    0
  9
$USERI4
 70
    0
  9
$USERI5
 70
    0
  9
$USERR1
 40
0
  9
$USERR2
 40
0
  9
$USERR3
 40
0
  9
$USERR4
 40
0
  9
$USERR5
 40
0
  9
$WORLDVIEW
 70
    1
  9
$SHADEDGE
 70
    3
  9
$SHADEDIF
 70
   70
  9
$TILEMODE
 70
    1
  9
$MAXACTVP
 70
   64
  9
$PINSBASE
 10
0
 20
0
 30
0
  9
$PLIMCHECK
 70
    0
  9
$PEXTMIN
 10
0
 20
0
 30
0
  9
$PEXTMAX
 10
0
 20
0
 30
0
  9
$GRIDMODE
 70
    1
  9
$SNAPSTYLE
 70
    0
  9
$PLIMMIN
 10
0
 20
0
  9
$PLIMMAX
 10
297
 20
210
  9
$UNITMODE
 70
    0
  9
$VISRETAIN
 70
    1
  9
$PLINEGEN
 70
    0
  9
$PSLTSCALE
 70
    1
  9
$TREEDEPTH
 70
 3020
  9
$CMLSTYLE
  2
Standard
  9
$CMLJUST
 70
    0
  9
$CMLSCALE
 40
20
  9
$PROXYGRAPHICS
 70
    1
  9
$MEASUREMENT
 70
    1
  9
$CELWEIGHT
370
   -1
  9
$ENDCAPS
280
    0
  9
$JOINSTYLE
280
    0
  9
$LWDISPLAY
290
    0
  9
$INSUNITS
 70
    0
  9
$HYPERLINKBASE
  1

  9
$STYLESHEET
  1

  9
$XEDIT
290
    1
  9
$CEPSNTYPE
380
    0
  9
$PSTYLEMODE
290
    1
  9
$EXTNAMES
290
    1
  9
$PSVPSCALE
 40
0
  9
$OLESTARTUP
290
    0
  9
$SORTENTS
280
  127
  9
$INDEXCTL
280
    0
  9
$HIDETEXT
280
    1
  9
$XCLIPFRAME
290
    0
  9
$HALOGAP
280
    0
  9
$OBSCOLOR
 70
  257
  9
$OBSLTYPE
280
    0
  9
$INTERSECTIONDISPLAY
280
    0
  9
$INTERSECTIONCOLOR
 70
  257
  9
$DIMASSOC
280
    1
  9
$PROJECTNAME
  1

  9
$CAMERADISPLAY
290
    0
  9
$LENSLENGTH
 40
50
  9
$CAMERAHEIGHT
 40
0
  9
$STEPSPERSEC
 40
2
  9
$STEPSIZE
 40
50
  9
$3DDWFPREC
 40
2
  9
$PSOLWIDTH
 40
5
  9
$PSOLHEIGHT
 40
80
  9
$LOFTANG1
 40
1.570796326794897
  9
$LOFTANG2
 40
1.570796326794897
  9
$LOFTMAG1
 40
0
  9
$LOFTMAG2
 40
0
  9
$LOFTPARAM
 70
    7
  9
$LOFTNORMALS
280
    1
  9
$LATITUDE
 40
1
  9
$LONGITUDE
 40
1
  9
$NORTHDIRECTION
 40
0
  9
$TIMEZONE
 70
-8000
  9
$LIGHTGLYPHDISPLAY
280
    1
  9
$TILEMODELIGHTSYNCH
280
    1
  9
$SOLIDHIST
280
    1
  9
$SHOWHIST
280
    1
  9
$DWFFRAME
280
    2
  9
$DGNFRAME
280
    0
  9
$REALWORLDSCALE
290
    1
  9
$INTERFERECOLOR
 62
    1
  9
$CSHADOW
280
    0
  9
$SHADOWPLANELOCATION
 40
0
  0
ENDSEC
  0
SECTION
  2
CLASSES
  0
ENDSEC
  0
SECTION
  2
TABLES
  0
TABLE
  2
VPORT
  5
8
330
0
100
AcDbSymbolTable
 70
    1
  0
VPORT
  5
31
330
2
100
AcDbSymbolTableRecord
100
AcDbViewportTableRecord
  2
*ACTIVE
 70
    0
 10
0
 20
0
 11
1
 21
1
 12
144895.9313182971
 22
49768.60249628467
 13
0
 23
0
 14
10
 24
10
 15
10
 25
10
 16
0
 26
0
 36
1
 17
0
 27
0
 37
0
 40
316251.1196599355
 41
1.446215139442231
 42
50
 43
0
 44
0
 50
0
 51
0
 71
    0
 72
  100
 73
    1
 74
    3
 75
    0
 76
    1
 77
    0
 78
    0
281
    0
 65
    1
110
0
120
0
130
0
111
1
121
0
131
0
112
0
122
1
132
0
 79
    0
146
0
348
10020
 60
    7
 61
    5
292
1
282
    1
141
0
142
0
 63
  250
421
3358443
  0
ENDTAB
  0
TABLE
  2
LTYPE
  5
5
330
0
100
AcDbSymbolTable
 70
    4
  0
LTYPE
  5
14
330
5
100
AcDbSymbolTableRecord
100
AcDbLinetypeTableRecord
  2
ByBlock
 70
    0
  3

 72
   65
 73
    0
 40
0
  0
LTYPE
  5
15
330
5
100
AcDbSymbolTableRecord
100
AcDbLinetypeTableRecord
  2
ByLayer
 70
    0
  3

 72
   65
 73
    0
 40
0
  0
LTYPE
  5
16
330
5
100
AcDbSymbolTableRecord
100
AcDbLinetypeTableRecord
  2
Continuous
 70
    0
  3
Solid line
 72
   65
 73
    0
 40
0
  0
LTYPE
  5
32
330
5
100
AcDbSymbolTableRecord
100
AcDbLinetypeTableRecord
  2
DOT
 70
    0
  3
Dot . . . . . . . . . . . . . . . . . . . . . .
 72
   65
 73
    2
 40
6.35
 49
0
 74
    0
 49
-6.35
 74
    0
  0
LTYPE
  5
33
330
5
100
AcDbSymbolTableRecord
100
AcDbLinetypeTableRecord
  2
DOTTINY
 70
    0
  3
Dot (.15x) .....................................
 72
   65
 73
    2
 40
0.9525
 49
0
 74
    0
 49
-0.9525
 74
    0
  0
LTYPE
  5
34
330
5
100
AcDbSymbolTableRecord
100
AcDbLinetypeTableRecord
  2
DOT2
 70
    0
  3
Dot (.5x) .....................................
 72
   65
 73
    2
 40
3.175
 49
0
 74
    0
 49
-3.175
 74
    0
  0
LTYPE
  5
35
330
5
100
AcDbSymbolTableRecord
100
AcDbLinetypeTableRecord
  2
DOTX2
 70
    0
  3
Dot (2x) .  .  .  .  .  .  .  .  .  .  .  .  .
 72
   65
 73
    2
 40
12.7
 49
0
 74
    0
 49
-12.7
 74
    0
  0
LTYPE
  5
36
330
5
100
AcDbSymbolTableRecord
100
AcDbLinetypeTableRecord
  2
DASHED
 70
    0
  3
Dashed _ _ _ _ _ _ _ _ _ _ _ _ _ _ _ _ _
 72
   65
 73
    2
 40
19.05
 49
12.7
 74
    0
 49
-6.35
 74
    0
  0
LTYPE
  5
37
330
5
100
AcDbSymbolTableRecord
100
AcDbLinetypeTableRecord
  2
DASHEDTINY
 70
    0
  3
Dashed (.15x) _ _ _ _ _ _ _ _ _ _ _ _ _ _ _ _ _
 72
   65
 73
    2
 40
2.8575
 49
1.905
 74
    0
 49
-0.9525
 74
    0
  0
LTYPE
  5
38
330
5
100
AcDbSymbolTableRecord
100
AcDbLinetypeTableRecord
  2
DASHED2
 70
    0
  3
Dashed (.5x) _ _ _ _ _ _ _ _ _ _ _ _ _ _ _ _ _
 72
   65
 73
    2
 40
9.524999999999999
 49
6.35
 74
    0
 49
-3.175
 74
    0
  0
LTYPE
  5
39
330
5
100
AcDbSymbolTableRecord
100
AcDbLinetypeTableRecord
  2
DASHEDX2
 70
    0
  3
Dashed (2x) ____  ____  ____  ____  ____  ___
 72
   65
 73
    2
 40
38.09999999999999
 49
25.4
 74
    0
 49
-12.7
 74
    0
  0
LTYPE
  5
3A
330
5
100
AcDbSymbolTableRecord
100
AcDbLinetypeTableRecord
  2
DASHDOT
 70
    0
  3
Dash dot __ . __ . __ . __ . __ . __ . __ . __
 72
   65
 73
    4
 40
25.4
 49
12.7
 74
    0
 49
-6.35
 74
    0
 49
0
 74
    0
 49
-6.35
 74
    0
  0
LTYPE
  5
3B
330
5
100
AcDbSymbolTableRecord
100
AcDbLinetypeTableRecord
  2
DASHDOTTINY
 70
    0
  3
Dash dot (.15x) _._._._._._._._._._._._._._._.
 72
   65
 73
    4
 40
3.81
 49
1.905
 74
    0
 49
-0.9525
 74
    0
 49
0
 74
    0
 49
-0.9525
 74
    0
  0
LTYPE
  5
3C
330
5
100
AcDbSymbolTableRecord
100
AcDbLinetypeTableRecord
  2
DASHDOT2
 70
    0
  3
Dash dot (.5x) _._._._._._._._._._._._._._._.
 72
   65
 73
    4
 40
12.7
 49
6.35
 74
    0
 49
-3.175
 74
    0
 49
0
 74
    0
 49
-3.175
 74
    0
  0
LTYPE
  5
3D
330
5
100
AcDbSymbolTableRecord
100
AcDbLinetypeTableRecord
  2
DASHDOTX2
 70
    0
  3
Dash dot (2x) ____  .  ____  .  ____  .  ___
 72
   65
 73
    4
 40
50.8
 49
25.4
 74
    0
 49
-12.7
 74
    0
 49
0
 74
    0
 49
-12.7
 74
    0
  0
LTYPE
  5
3E
330
5
100
AcDbSymbolTableRecord
100
AcDbLinetypeTableRecord
  2
DIVIDE
 70
    0
  3
Divide ____ . . ____ . . ____ . . ____ . . ____
 72
   65
 73
    6
 40
31.75
 49
12.7
 74
    0
 49
-6.35
 74
    0
 49
0
 74
    0
 49
-6.35
 74
    0
 49
0
 74
    0
 49
-6.35
 74
    0
  0
LTYPE
  5
3F
330
5
100
AcDbSymbolTableRecord
100
AcDbLinetypeTableRecord
  2
DIVIDETINY
 70
    0
  3
Divide (.15x) __..__..__..__..__..__..__..__.._
 72
   65
 73
    6
 40
4.7625
 49
1.905
 74
    0
 49
-0.9525
 74
    0
 49
0
 74
    0
 49
-0.9525
 74
    0
 49
0
 74
    0
 49
-0.9525
 74
    0
  0
LTYPE
  5
40
330
5
100
AcDbSymbolTableRecord
100
AcDbLinetypeTableRecord
  2
DIVIDE2
 70
    0
  3
Divide (.5x) __..__..__..__..__..__..__..__.._
 72
   65
 73
    6
 40
15.875
 49
6.35
 74
    0
 49
-3.175
 74
    0
 49
0
 74
    0
 49
-3.175
 74
    0
 49
0
 74
    0
 49
-3.175
 74
    0
  0
LTYPE
  5
41
330
5
100
AcDbSymbolTableRecord
100
AcDbLinetypeTableRecord
  2
DIVIDEX2
 70
    0
  3
Divide (2x) ________  .  .  ________  .  .  _
 72
   65
 73
    6
 40
63.5
 49
25.4
 74
    0
 49
-12.7
 74
    0
 49
0
 74
    0
 49
-12.7
 74
    0
 49
0
 74
    0
 49
-12.7
 74
    0
  0
LTYPE
  5
42
330
5
100
AcDbSymbolTableRecord
100
AcDbLinetypeTableRecord
  2
BORDER
 70
    0
  3
Border __ __ . __ __ . __ __ . __ __ . __ __ .
 72
   65
 73
    6
 40
44.45
 49
12.7
 74
    0
 49
-6.35
 74
    0
 49
12.7
 74
    0
 49
-6.35
 74
    0
 49
0
 74
    0
 49
-6.35
 74
    0
  0
LTYPE
  5
43
330
5
100
AcDbSymbolTableRecord
100
AcDbLinetypeTableRecord
  2
BORDERTINY
 70
    0
  3
Border (.15x) __.__.__.__.__.__.__.__.__.__.__.
 72
   65
 73
    6
 40
6.6675
 49
1.905
 74
    0
 49
-0.9525
 74
    0
 49
1.905
 74
    0
 49
-0.9525
 74
    0
 49
0
 74
    0
 49
-0.9525
 74
    0
  0
LTYPE
  5
44
330
5
100
AcDbSymbolTableRecord
100
AcDbLinetypeTableRecord
  2
BORDER2
 70
    0
  3
Border (.5x) __.__.__.__.__.__.__.__.__.__.__.
 72
   65
 73
    6
 40
22.225
 49
6.35
 74
    0
 49
-3.175
 74
    0
 49
6.35
 74
    0
 49
-3.175
 74
    0
 49
0
 74
    0
 49
-3.175
 74
    0
  0
LTYPE
  5
45
330
5
100
AcDbSymbolTableRecord
100
AcDbLinetypeTableRecord
  2
BORDERX2
 70
    0
  3
Border (2x) ____  ____  .  ____  ____  .  ___
 72
   65
 73
    6
 40
88.89999999999999
 49
25.4
 74
    0
 49
-12.7
 74
    0
 49
25.4
 74
    0
 49
-12.7
 74
    0
 49
0
 74
    0
 49
-12.7
 74
    0
  0
LTYPE
  5
46
330
5
100
AcDbSymbolTableRecord
100
AcDbLinetypeTableRecord
  2
CENTER
 70
    0
  3
Center ____ _ ____ _ ____ _ ____ _ ____ _ ____
 72
   65
 73
    4
 40
50.8
 49
31.75
 74
    0
 49
-6.35
 74
    0
 49
6.35
 74
    0
 49
-6.35
 74
    0
  0
LTYPE
  5
47
330
5
100
AcDbSymbolTableRecord
100
AcDbLinetypeTableRecord
  2
CENTERTINY
 70
    0
  3
Center (.15x) ___ _ ___ _ ___ _ ___ _ ___ _ ___
 72
   65
 73
    4
 40
7.619999999999999
 49
4.7625
 74
    0
 49
-0.9525
 74
    0
 49
0.9525
 74
    0
 49
-0.9525
 74
    0
  0
LTYPE
  5
48
330
5
100
AcDbSymbolTableRecord
100
AcDbLinetypeTableRecord
  2
CENTER2
 70
    0
  3
Center (.5x) ___ _ ___ _ ___ _ ___ _ ___ _ ___
 72
   65
 73
    4
 40
28.575
 49
19.05
 74
    0
 49
-3.175
 74
    0
 49
3.175
 74
    0
 49
-3.175
 74
    0
  0
LTYPE
  5
49
330
5
100
AcDbSymbolTableRecord
100
AcDbLinetypeTableRecord
  2
CENTERX2
 70
    0
  3
Center (2x) ________  __  ________  __  _____
 72
   65
 73
    4
 40
101.6
 49
63.5
 74
    0
 49
-12.7
 74
    0
 49
12.7
 74
    0
 49
-12.7
 74
    0
  0
ENDTAB
  0
TABLE
  2
LAYER
  5
2
330
0
100
AcDbSymbolTable
 70
    1
  0
LAYER
  5
10
330
2
100
AcDbSymbolTableRecord
100
AcDbLayerTableRecord
  2
0
 70
    0
 62
    7
  6
CONTINUOUS
370
    0
390
F
  0
LAYER
  5
4A
330
2
100
AcDbSymbolTableRecord
100
AcDbLayerTableRecord
  2
cup saucer
 70
    0
 62
   40
420
16755200
  6
CONTINUOUS
370
    5
390
F
  0
LAYER
  5
4B
330
2
100
AcDbSymbolTableRecord
100
AcDbLayerTableRecord
  2
dodgem
 70
    0
 62
   96
420
32768
  6
CONTINUOUS
370
    0
390
F
  0
LAYER
  5
4C
330
2
100
AcDbSymbolTableRecord
100
AcDbLayerTableRecord
  2
jumping castle
 70
    0
 62
    2
420
16774912
  6
CONTINUOUS
370
    0
390
F
  0
LAYER
  5
4D
330
2
100
AcDbSymbolTableRecord
100
AcDbLayerTableRecord
  2
merry go round
 70
    0
 62
  211
420
16755455
  6
CONTINUOUS
370
    0
390
F
  0
LAYER
  5
4E
330
2
100
AcDbSymbolTableRecord
100
AcDbLayerTableRecord
  2
miami trip
 70
    0
 62
    3
  6
CONTINUOUS
370
    0
390
F
  0
LAYER
  5
4F
330
2
100
AcDbSymbolTableRecord
100
AcDbLayerTableRecord
  2
storm
 70
    0
 62
    4
  6
CONTINUOUS
370
    0
390
F
  0
LAYER
  5
50
330
2
100
AcDbSymbolTableRecord
100
AcDbLayerTableRecord
  2
superslide
 70
    0
 62
  171
420
5592575
  6
CONTINUOUS
370
    0
390
F
  0
LAYER
  5
51
330
2
100
AcDbSymbolTableRecord
100
AcDbLayerTableRecord
  2
tents and stalls
 70
    0
 62
    6
  6
CONTINUOUS
370
    0
390
F
  0
ENDTAB
  0
TABLE
  2
STYLE
  5
3
330
0
100
AcDbSymbolTable
 70
    3
  0
STYLE
  5
52
330
2
100
AcDbSymbolTableRecord
100
AcDbTextStyleTableRecord
  2
Standard
 70
    0
 40
0
 41
1
 50
0
 71
    0
 42
1
  3
txt
  4

  0
ENDTAB
  0
TABLE
  2
VIEW
  5
6
330
0
100
AcDbSymbolTable
 70
    0
  0
ENDTAB
  0
TABLE
  2
UCS
  5
7
330
0
100
AcDbSymbolTable
 70
    0
  0
ENDTAB
  0
TABLE
  2
APPID
  5
9
330
0
100
AcDbSymbolTable
 70
    1
  0
APPID
  5
12
330
9
100
AcDbSymbolTableRecord
100
AcDbRegAppTableRecord
  2
ACAD
 70
    0
  0
APPID
  5
53
330
9
100
AcDbSymbolTableRecord
100
AcDbRegAppTableRecord
  2
LibreCad
 70
    0
  0
ENDTAB
  0
TABLE
  2
DIMSTYLE
  5
A
330
0
100
AcDbSymbolTable
 70
    1
100
AcDbDimStyleTable
 71
    1
  0
DIMSTYLE
105
54
330
A
100
AcDbSymbolTableRecord
100
AcDbDimStyleTableRecord
  2
Standard
 70
    0
 40
2.5
 41
2.5
 42
0.625
 43
0.38
 44
1.25
 45
0
 46
0
 47
0
 48
0
 49
1
140
25000
141
0.09
142
0
143
25.4
144
1
145
0
146
1
147
0.625
148
0
 71
    0
 72
    0
 73
    0
 74
    1
 75
    0
 76
    0
 77
    0
 78
    1
 79
    0
170
    0
171
    2
172
    0
173
    0
174
    0
175
    0
176
    0
177
    0
178
    0
179
    2
271
    4
272
    4
273
    2
274
    2
275
    0
276
    0
277
    2
278
   44
279
    0
280
    0
281
    0
282
    0
283
    1
284
    0
285
    0
286
    0
288
    0
289
    3
340
standard
341

371
   -2
372
   -2
  0
ENDTAB
  0
TABLE
  2
BLOCK_RECORD
  5
1
330
0
100
AcDbSymbolTable
 70
    2
  0
BLOCK_RECORD
  5
1F
330
1
100
AcDbSymbolTableRecord
100
AcDbBlockTableRecord
  2
*Model_Space
 70
    0
280
    1
281
    0
  0
BLOCK_RECORD
  5
1E
330
1
100
AcDbSymbolTableRecord
100
AcDbBlockTableRecord
  2
*Paper_Space
 70
    0
280
    1
281
    0
  0
ENDTAB
  0
ENDSEC
  0
SECTION
  2
BLOCKS
  0
BLOCK
  5
20
330
1F
100
AcDbEntity
  8
0
100
AcDbBlockBegin
  2
*Model_Space
 70
    0
 10
0
 20
0
 30
0
  3
*Model_Space
  1

  0
ENDBLK
  5
21
330
1F
100
AcDbEntity
  8
0
100
AcDbBlockEnd
  0
BLOCK
  5
1C
330
1B
100
AcDbEntity
  8
0
100
AcDbBlockBegin
  2
*Paper_Space
 70
    0
 10
0
 20
0
 30
0
  3
*Paper_Space
  1

  0
ENDBLK
  5
1D
330
1F
100
AcDbEntity
  8
0
100
AcDbBlockEnd
  0
ENDSEC
  0
SECTION
  2
ENTITIES
  0
LINE
  5
55
100
AcDbEntity
  8
tents and stalls
  6
ByLayer
 62
  256
370
   -1
100
AcDbLine
 10
122335.4707089274
 20
-41110.02267725472
 11
125335.4707089274
 21
-41110.02267725472
  0
LINE
  5
56
100
AcDbEntity
  8
tents and stalls
  6
ByLayer
 62
  256
370
   -1
100
AcDbLine
 10
128966.1195278394
 20
-54371.32031507882
 11
134966.1195278394
 21
-54371.32031507882
  0
LINE
  5
57
100
AcDbEntity
  8
tents and stalls
  6
ByLayer
 62
  256
370
   -1
100
AcDbLine
 10
122335.4707089274
 20
-41110.02267725472
 11
122335.4707089274
 21
-38110.02267725472
  0
LINE
  5
58
100
AcDbEntity
  8
tents and stalls
  6
ByLayer
 62
  256
370
   -1
100
AcDbLine
 10
128966.1195278394
 20
-54371.32031507882
 11
128966.1195278394
 21
-51371.32031507882
  0
LINE
  5
59
100
AcDbEntity
  8
tents and stalls
  6
ByLayer
 62
  256
370
   -1
100
AcDbLine
 10
125335.4707089274
 20
-41110.02267725472
 11
125335.4707089274
 21
-38110.02267725472
  0
LINE
  5
5A
100
AcDbEntity
  8
tents and stalls
  6
ByLayer
 62
  256
370
   -1
100
AcDbLine
 10
134966.1195278394
 20
-54371.32031507882
 11
134966.1195278394
 21
-51371.32031507882
  0
LINE
  5
5B
100
AcDbEntity
  8
tents and stalls
  6
ByLayer
 62
  256
370
   -1
100
AcDbLine
 10
156151.7796853788
 20
-41773.08755914593
 11
156151.7796853788
 21
-35773.08755914593
  0
LINE
  5
5C
100
AcDbEntity
  8
tents and stalls
  6
ByLayer
 62
  256
370
   -1
100
AcDbLine
 10
122335.4707089274
 20
-38110.02267725472
 11
125335.4707089274
 21
-38110.02267725472
  0
LINE
  5
5D
100
AcDbEntity
  8
tents and stalls
  6
ByLayer
 62
  256
370
   -1
100
AcDbLine
 10
156151.7796853788
 20
-35773.08755914593
 11
159151.7796853788
 21
-35773.08755914593
  0
LINE
  5
5E
100
AcDbEntity
  8
tents and stalls
  6
ByLayer
 62
  256
370
   -1
100
AcDbLine
 10
156151.7796853788
 20
-41773.08755914593
 11
159151.7796853788
 21
-41773.08755914593
  0
LINE
  5
5F
100
AcDbEntity
  8
tents and stalls
  6
ByLayer
 62
  256
370
   -1
100
AcDbLine
 10
128966.1195278394
 20
-51371.32031507882
 11
134966.1195278394
 21
-51371.32031507882
  0
LINE
  5
60
100
AcDbEntity
  8
tents and stalls
  6
ByLayer
 62
  256
370
   -1
100
AcDbLine
 10
159151.7796853788
 20
-41773.08755914593
 11
159151.7796853788
 21
-35773.08755914593
  0
LINE
  5
61
100
AcDbEntity
  8
tents and stalls
  6
ByLayer
 62
  256
370
   -1
100
AcDbLine
 10
134966.1195278394
 20
-54371.32031507882
 11
140966.1195278394
 21
-54371.32031507882
  0
LINE
  5
62
100
AcDbEntity
  8
tents and stalls
  6
ByLayer
 62
  256
370
   -1
100
AcDbLine
 10
140966.1195278394
 20
-54371.32031507882
 11
140966.1195278394
 21
-51371.32031507882
  0
LINE
  5
63
100
AcDbEntity
  8
tents and stalls
  6
ByLayer
 62
  256
370
   -1
100
AcDbLine
 10
134966.1195278394
 20
-51371.32031507882
 11
140966.1195278394
 21
-51371.32031507882
  0
LINE
  5
64
100
AcDbEntity
  8
tents and stalls
  6
ByLayer
 62
  256
370
   -1
100
AcDbLine
 10
140966.1195278394
 20
-54371.32031507882
 11
146966.1195278394
 21
-54371.32031507882
  0
LINE
  5
65
100
AcDbEntity
  8
tents and stalls
  6
ByLayer
 62
  256
370
   -1
100
AcDbLine
 10
146966.1195278394
 20
-54371.32031507882
 11
146966.1195278394
 21
-51371.32031507882
  0
LINE
  5
66
100
AcDbEntity
  8
tents and stalls
  6
ByLayer
 62
  256
370
   -1
100
AcDbLine
 10
140966.1195278394
 20
-51371.32031507882
 11
146966.1195278394
 21
-51371.32031507882
  0
LINE
  5
67
100
AcDbEntity
  8
tents and stalls
  6
ByLayer
 62
  256
370
   -1
100
AcDbLine
 10
128966.1195278394
 20
-63152.58700304362
 11
134966.1195278394
 21
-63152.58700304362
  0
LINE
  5
68
100
AcDbEntity
  8
tents and stalls
  6
ByLayer
 62
  256
370
   -1
100
AcDbLine
 10
128966.1195278394
 20
-63152.58700304362
 11
128966.1195278394
 21
-60152.58700304362
  0
LINE
  5
69
100
AcDbEntity
  8
tents and stalls
  6
ByLayer
 62
  256
370
   -1
100
AcDbLine
 10
134966.1195278394
 20
-63152.58700304362
 11
134966.1195278394
 21
-60152.58700304362
  0
LINE
  5
6A
100
AcDbEntity
  8
tents and stalls
  6
ByLayer
 62
  256
370
   -1
100
AcDbLine
 10
128966.1195278394
 20
-60152.58700304362
 11
134966.1195278394
 21
-60152.58700304362
  0
LINE
  5
6B
100
AcDbEntity
  8
tents and stalls
  6
ByLayer
 62
  256
370
   -1
100
AcDbLine
 10
134966.1195278394
 20
-63152.58700304362
 11
140966.1195278394
 21
-63152.58700304362
  0
LINE
  5
6C
100
AcDbEntity
  8
tents and stalls
  6
ByLayer
 62
  256
370
   -1
100
AcDbLine
 10
140966.1195278394
 20
-63152.58700304362
 11
140966.1195278394
 21
-60152.58700304362
  0
LINE
  5
6D
100
AcDbEntity
  8
tents and stalls
  6
ByLayer
 62
  256
370
   -1
100
AcDbLine
 10
134966.1195278394
 20
-60152.58700304362
 11
140966.1195278394
 21
-60152.58700304362
  0
LINE
  5
6E
100
AcDbEntity
  8
tents and stalls
  6
ByLayer
 62
  256
370
   -1
100
AcDbLine
 10
140966.1195278394
 20
-63152.58700304362
 11
146966.1195278394
 21
-63152.58700304362
  0
LINE
  5
6F
100
AcDbEntity
  8
tents and stalls
  6
ByLayer
 62
  256
370
   -1
100
AcDbLine
 10
146966.1195278394
 20
-63152.58700304362
 11
146966.1195278394
 21
-60152.58700304362
  0
LINE
  5
70
100
AcDbEntity
  8
tents and stalls
  6
ByLayer
 62
  256
370
   -1
100
AcDbLine
 10
140966.1195278394
 20
-60152.58700304362
 11
146966.1195278394
 21
-60152.58700304362
  0
LINE
  5
71
100
AcDbEntity
  8
tents and stalls
  6
ByLayer
 62
  256
370
   -1
100
AcDbLine
 10
146966.1195278394
 20
-63152.58700304362
 11
152966.1195278394
 21
-63152.58700304362
  0
LINE
  5
72
100
AcDbEntity
  8
tents and stalls
  6
ByLayer
 62
  256
370
   -1
100
AcDbLine
 10
152966.1195278394
 20
-63152.58700304362
 11
152966.1195278394
 21
-60152.58700304362
  0
LINE
  5
73
100
AcDbEntity
  8
tents and stalls
  6
ByLayer
 62
  256
370
   -1
100
AcDbLine
 10
146966.1195278394
 20
-60152.58700304362
 11
152966.1195278394
 21
-60152.58700304362
  0
LINE
  5
74
100
AcDbEntity
  8
superslide
  6
ByLayer
 62
  256
370
   -1
100
AcDbLine
 10
-8292.952477813335
 20
-95689.33404217943
 11
-8292.952477813335
 21
-60689.33404217943
  0
LINE
  5
75
100
AcDbEntity
  8
superslide
  6
ByLayer
 62
  256
370
   -1
100
AcDbLine
 10
-292.9524778133346
 20
-95689.33404217943
 11
-292.9524778133346
 21
-60689.33404217943
  0
LINE
  5
76
100
AcDbEntity
  8
superslide
  6
ByLayer
 62
  256
370
   -1
100
AcDbLine
 10
-8292.952477813335
 20
-60689.33404217943
 11
-292.9524778133346
 21
-60689.33404217943
  0
LINE
  5
77
100
AcDbEntity
  8
superslide
  6
ByLayer
 62
  256
370
   -1
100
AcDbLine
 10
-8292.952477813335
 20
-95689.33404217943
 11
-292.9524778133346
 21
-95689.33404217943
  0
LINE
  5
78
100
AcDbEntity
  8
miami trip
  6
ByLayer
 62
  256
370
   -1
100
AcDbLine
 10
-1161.478854261441
 20
-120841.4955448358
 11
18838.52114573856
 21
-120841.4955448358
  0
LINE
  5
79
100
AcDbEntity
  8
miami trip
  6
ByLayer
 62
  256
370
   -1
100
AcDbLine
 10
-1161.478854261441
 20
-120841.4955448358
 11
-1161.478854261441
 21
-100841.4955448358
  0
LINE
  5
7A
100
AcDbEntity
  8
miami trip
  6
ByLayer
 62
  256
370
   -1
100
AcDbLine
 10
18838.52114573856
 20
-120841.4955448358
 11
18838.52114573856
 21
-100841.4955448358
  0
LINE
  5
7B
100
AcDbEntity
  8
miami trip
  6
ByLayer
 62
  256
370
   -1
100
AcDbLine
 10
-1161.478854261441
 20
-100841.4955448358
 11
18838.52114573856
 21
-100841.4955448358
  0
CIRCLE
  5
7C
100
AcDbEntity
  8
storm
  6
ByLayer
 62
  256
370
   -1
100
AcDbCircle
 10
20365.93002129835
 20
-133531.8704742057
 40
9000
  0
LINE
  5
7D
100
AcDbEntity
  8
dodgem
  6
ByLayer
 62
  256
370
   -1
100
AcDbLine
 10
8271.428901636391
 20
-96259.6199149649
 11
28271.42890163639
 21
-96259.6199149649
  0
LINE
  5
7E
100
AcDbEntity
  8
dodgem
  6
ByLayer
 62
  256
370
   -1
100
AcDbLine
 10
8271.428901636391
 20
-74259.6199149649
 11
28271.42890163639
 21
-74259.6199149649
  0
LINE
  5
7F
100
AcDbEntity
  8
dodgem
  6
ByLayer
 62
  256
370
   -1
100
AcDbLine
 10
28271.42890163639
 20
-96259.6199149649
 11
28271.42890163639
 21
-74259.6199149649
  0
LINE
  5
80
100
AcDbEntity
  8
dodgem
  6
ByLayer
 62
  256
370
   -1
100
AcDbLine
 10
8271.428901636391
 20
-96259.6199149649
 11
8271.428901636391
 21
-74259.6199149649
  0
CIRCLE
  5
81
100
AcDbEntity
  8
merry go round
  6
ByLayer
 62
  256
370
   -1
100
AcDbCircle
 10
40496.00055474913
 20
-138341.5254253407
 40
7000
  0
CIRCLE
  5
82
100
AcDbEntity
  8
cup saucer
  6
ByLayer
 62
  256
370
   -1
100
AcDbCircle
 10
52673.71495933823
 20
-123263.4300111346
 40
5000
  0
LINE
  5
83
100
AcDbEntity
  8
jumping castle
  6
ByLayer
 62
  256
370
   -1
100
AcDbLine
 10
25726.47670119761
 20
-120562.2869822837
 11
25726.47670119761
 21
-108562.2869822837
  0
LINE
  5
84
100
AcDbEntity
  8
jumping castle
  6
ByLayer
 62
  256
370
   -1
100
AcDbLine
 10
43726.47670119761
 20
-120562.2869822837
 11
43726.47670119761
 21
-108562.2869822837
  0
LINE
  5
85
100
AcDbEntity
  8
jumping castle
  6
ByLayer
 62
  256
370
   -1
100
AcDbLine
 10
25726.47670119761
 20
-108562.2869822837
 11
43726.47670119761
 21
-108562.2869822837
  0
LINE
  5
86
100
AcDbEntity
  8
jumping castle
  6
ByLayer
 62
  256
370
   -1
100
AcDbLine
 10
25726.47670119761
 20
-120562.2869822837
 11
43726.47670119761
 21
-120562.2869822837
  0
LINE
  5
87
100
AcDbEntity
  8
tents and stalls
  6
ByLayer
 62
  256
370
   -1
100
AcDbLine
 10
48751.15112402669
 20
-79519.43977338115
 11
54751.15112402671
 21
-79519.43977338115
  0
LINE
  5
88
100
AcDbEntity
  8
tents and stalls
  6
ByLayer
 62
  256
370
   -1
100
AcDbLine
 10
48751.15112402669
 20
-79519.43977338115
 11
48751.15112402669
 21
-76519.43977338115
  0
LINE
  5
89
100
AcDbEntity
  8
tents and stalls
  6
ByLayer
 62
  256
370
   -1
100
AcDbLine
 10
54751.15112402671
 20
-79519.43977338115
 11
54751.15112402671
 21
-76519.43977338115
  0
LINE
  5
8A
100
AcDbEntity
  8
tents and stalls
  6
ByLayer
 62
  256
370
   -1
100
AcDbLine
 10
48751.15112402669
 20
-76519.43977338115
 11
54751.15112402671
 21
-76519.43977338115
  0
LINE
  5
8B
100
AcDbEntity
  8
tents and stalls
  6
ByLayer
 62
  256
370
   -1
100
AcDbLine
 10
54751.15112402671
 20
-79519.43977338115
 11
60751.15112402671
 21
-79519.43977338115
  0
LINE
  5
8C
100
AcDbEntity
  8
tents and stalls
  6
ByLayer
 62
  256
370
   -1
100
AcDbLine
 10
60751.15112402671
 20
-79519.43977338115
 11
60751.15112402671
 21
-76519.43977338115
  0
LINE
  5
8D
100
AcDbEntity
  8
tents and stalls
  6
ByLayer
 62
  256
370
   -1
100
AcDbLine
 10
54751.15112402671
 20
-76519.43977338115
 11
60751.15112402671
 21
-76519.43977338115
  0
LINE
  5
8E
100
AcDbEntity
  8
tents and stalls
  6
ByLayer
 62
  256
370
   -1
100
AcDbLine
 10
60751.15112402671
 20
-79519.43977338115
 11
66751.15112402671
 21
-79519.43977338115
  0
LINE
  5
8F
100
AcDbEntity
  8
tents and stalls
  6
ByLayer
 62
  256
370
   -1
100
AcDbLine
 10
66751.15112402671
 20
-79519.43977338115
 11
66751.15112402671
 21
-76519.43977338115
  0
LINE
  5
90
100
AcDbEntity
  8
tents and stalls
  6
ByLayer
 62
  256
370
   -1
100
AcDbLine
 10
60751.15112402671
 20
-76519.43977338115
 11
66751.15112402671
 21
-76519.43977338115
  0
LINE
  5
91
100
AcDbEntity
  8
tents and stalls
  6
ByLayer
 62
  256
370
   -1
100
AcDbLine
 10
54751.15112402671
 20
-88300.70646134595
 11
54751.15112402671
 21
-85300.70646134595
  0
LINE
  5
92
100
AcDbEntity
  8
tents and stalls
  6
ByLayer
 62
  256
370
   -1
100
AcDbLine
 10
54751.15112402671
 20
-88300.70646134595
 11
60751.15112402671
 21
-88300.70646134595
  0
LINE
  5
93
100
AcDbEntity
  8
tents and stalls
  6
ByLayer
 62
  256
370
   -1
100
AcDbLine
 10
60751.15112402671
 20
-88300.70646134595
 11
60751.15112402671
 21
-85300.70646134595
  0
LINE
  5
94
100
AcDbEntity
  8
tents and stalls
  6
ByLayer
 62
  256
370
   -1
100
AcDbLine
 10
54751.15112402671
 20
-85300.70646134595
 11
60751.15112402671
 21
-85300.70646134595
  0
LINE
  5
95
100
AcDbEntity
  8
tents and stalls
  6
ByLayer
 62
  256
370
   -1
100
AcDbLine
 10
60751.15112402671
 20
-88300.70646134595
 11
66751.15112402671
 21
-88300.70646134595
  0
LINE
  5
96
100
AcDbEntity
  8
tents and stalls
  6
ByLayer
 62
  256
370
   -1
100
AcDbLine
 10
66751.15112402671
 20
-88300.70646134595
 11
66751.15112402671
 21
-85300.70646134595
  0
LINE
  5
97
100
AcDbEntity
  8
tents and stalls
  6
ByLayer
 62
  256
370
   -1
100
AcDbLine
 10
60751.15112402671
 20
-85300.70646134595
 11
66751.15112402671
 21
-85300.70646134595
  0
LINE
  5
98
100
AcDbEntity
  8
tents and stalls
  6
ByLayer
 62
  256
370
   -1
100
AcDbLine
 10
66751.15112402671
 20
-88300.70646134595
 11
72751.15112402671
 21
-88300.70646134595
  0
LINE
  5
99
100
AcDbEntity
  8
tents and stalls
  6
ByLayer
 62
  256
370
   -1
100
AcDbLine
 10
72751.15112402671
 20
-88300.70646134595
 11
72751.15112402671
 21
-85300.70646134595
  0
LINE
  5
9A
100
AcDbEntity
  8
tents and stalls
  6
ByLayer
 62
  256
370
   -1
100
AcDbLine
 10
66751.15112402671
 20
-85300.70646134595
 11
72751.15112402671
 21
-85300.70646134595
  0
LINE
  5
9B
100
AcDbEntity
  8
tents and stalls
  6
ByLayer
 62
  256
370
   -1
100
AcDbLine
 10
66751.15112402671
 20
-79519.43977338115
 11
72751.15112402671
 21
-79519.43977338115
  0
LINE
  5
9C
100
AcDbEntity
  8
tents and stalls
  6
ByLayer
 62
  256
370
   -1
100
AcDbLine
 10
72751.15112402671
 20
-79519.43977338115
 11
72751.15112402671
 21
-76519.43977338115
  0
LINE
  5
9D
100
AcDbEntity
  8
tents and stalls
  6
ByLayer
 62
  256
370
   -1
100
AcDbLine
 10
66751.15112402671
 20
-76519.43977338115
 11
72751.15112402671
 21
-76519.43977338115
  0
LINE
  5
9E
100
AcDbEntity
  8
tents and stalls
  6
ByLayer
 62
  256
370
   -1
100
AcDbLine
 10
48751.15112402669
 20
-88300.70646134595
 11
54751.15112402671
 21
-88300.70646134595
  0
LINE
  5
9F
100
AcDbEntity
  8
tents and stalls
  6
ByLayer
 62
  256
370
   -1
100
AcDbLine
 10
48751.15112402669
 20
-88300.70646134595
 11
48751.15112402669
 21
-85300.70646134595
  0
LINE
  5
A0
100
AcDbEntity
  8
tents and stalls
  6
ByLayer
 62
  256
370
   -1
100
AcDbLine
 10
48751.15112402669
 20
-85300.70646134595
 11
54751.15112402671
 21
-85300.70646134595
  0
LINE
  5
A1
100
AcDbEntity
  8
0
  6
ByLayer
 62
  256
370
   -1
100
AcDbLine
 10
92607.39958169158
 20
-122216.5681554297
 11
117882.8100571347
 21
-165125.7003454177
  0
LINE
  5
A2
100
AcDbEntity
  8
0
  6
ByLayer
 62
  256
370
   -1
100
AcDbLine
 10
92607.39958169158
 20
-122216.5681554297
 11
114492.7802569063
 21
-109325.0937362278
  0
LINE
  5
A3
100
AcDbEntity
  8
0
  6
ByLayer
 62
  256
370
   -1
100
AcDbLine
 10
98133.60251989623
 20
-89513.75905531076
 11
105427.3162206993
 21
-84872.30488207242
  0
LINE
  5
A4
100
AcDbEntity
  8
0
  6
ByLayer
 62
  256
370
   -1
100
AcDbLine
 10
105427.3162206993
 20
-84872.30488207242
 11
92829.08346476671
 21
-62991.16377966313
  0
LINE
  5
A5
100
AcDbEntity
  8
0
  6
ByLayer
 62
  256
370
   -1
100
AcDbLine
 10
117882.8100571346
 20
-165125.7003454177
 11
139768.1907323494
 21
-152234.2259262158
  0
LINE
  5
A6
100
AcDbEntity
  8
0
  6
ByLayer
 62
  256
370
   -1
100
AcDbLine
 10
114492.7802569063
 20
-109325.0937362278
 11
139768.1907323494
 21
-152234.2259262158
  0
LINE
  5
A7
100
AcDbEntity
  8
0
  6
ByLayer
 62
  256
370
   -1
100
AcDbLine
 10
124656.1977955439
 20
-86861.499527746
 11
116367.886771904
 21
-81888.51291356207
  0
LINE
  5
A8
100
AcDbEntity
  8
0
  6
ByLayer
 62
  256
370
   -1
100
AcDbLine
 10
116367.886771904
 20
-81888.51291356207
 11
114710.224567176
 21
-78573.1885041061
  0
LINE
  5
A9
100
AcDbEntity
  8
0
  6
ByLayer
 62
  256
370
   -1
100
AcDbLine
 10
110731.8352758289
 20
-94155.2132285491
 11
113715.6272443392
 21
-83546.17511829003
  0
LINE
  5
AA
100
AcDbEntity
  8
0
  6
ByLayer
 62
  256
370
   -1
100
AcDbLine
 10
113715.6272443392
 20
-83546.17511829003
 11
111394.9001577201
 21
-80230.85070883408
  0
SPLINE
  5
AB
100
AcDbEntity
  8
0
  6
ByLayer
 62
  256
370
   -1
100
AcDbSpline
210
0
220
0
230
0
 70
    8
 71
    2
 72
   13
 73
   10
 74
    0
 42
1e-07
 43
1e-07
 40
0
 40
0
 40
0
 40
0.125
 40
0.25
 40
0.375
 40
0.5
 40
0.625
 40
0.75
 40
0.875
 40
1
 40
1
 40
1
 10
90556.04600239989
 20
-48432.10418539346
 30
0
 10
72017.70446662512
 20
-30568.26061572597
 30
0
 10
28285.08149563713
 20
-28175.18364908388
 30
0
 10
-15271.86540514343
 20
-50859.57419320826
 30
0
 10
-11884.11597710969
 20
-102139.9046720032
 30
0
 10
-112.6370046359876
 20
-137033.4655710504
 30
0
 10
25313.53175677197
 20
-149140.0642679963
 30
0
 10
43204.39268782908
 20
-148575.0977729942
 30
0
 10
69208.82249527302
 20
-144760.0032561347
 30
0
 10
85173.68613344483
 20
-119819.8962887828
 30
0
  0
LINE
  5
AC
100
AcDbEntity
  8
0
  6
ByLayer
 62
  256
370
   -1
100
AcDbLine
 10
98133.60251989623
 20
-89513.75905531076
 11
85173.68613344483
 21
-119819.8962887828
  0
LINE
  5
AD
100
AcDbEntity
  8
0
  6
ByLayer
 62
  256
370
   -1
100
AcDbLine
 10
90556.04600239989
 20
-48432.10418539346
 11
92829.08346476671
 21
-62991.16377966313
  0
SPLINE
  5
AE
100
AcDbEntity
  8
0
  6
ByLayer
 62
  256
370
   -1
100
AcDbSpline
210
0
220
0
230
0
 70
    8
 71
    2
 72
    8
 73
    5
 74
    0
 42
1e-07
 43
1e-07
 40
0
 40
0
 40
0
 40
0.3333333333333333
 40
0.6666666666666666
 40
1
 40
1
 40
1
 10
130740.0119308626
 20
-128122.3568207611
 30
0
 10
135560.7089820734
 20
-133303.3454223216
 30
0
 10
145291.4555786402
 20
-134408.3397074303
 30
0
 10
149078.3182930078
 20
-124682.5731861817
 30
0
 10
144191.2046159339
 20
-116851.8621111617
 30
0
  0
LINE
  5
AF
100
AcDbEntity
  8
0
  6
ByLayer
 62
  256
370
   -1
100
AcDbLine
 10
110731.8352758289
 20
-94155.2132285491
 11
130740.0119308626
 21
-128122.3568207611
  0
LINE
  5
B0
100
AcDbEntity
  8
0
  6
ByLayer
 62
  256
370
   -1
100
AcDbLine
 10
144191.2046159341
 20
-116851.8621111621
 11
124656.1977955439
 21
-86861.499527746
  0
ENDSEC
  0
SECTION
  2
OBJECTS
  0
DICTIONARY
  5
C
330
0
100
AcDbDictionary
281
    1
  3
ACAD_GROUP
350
D
  0
DICTIONARY
  5
D
330
C
100
AcDbDictionary
281
    1
  0
ENDSEC
  0
EOF
